<mxfile host="app.diagrams.net" agent="Mozilla/5.0 (Macintosh; Intel Mac OS X 10_15_7) AppleWebKit/537.36 (KHTML, like Gecko) Chrome/129.0.0.0 Safari/537.36" version="24.7.17">
  <diagram name="Page-1" id="14aNMYvYzSU77Alh7hwV">
    <mxGraphModel dx="641" dy="946" grid="1" gridSize="10" guides="1" tooltips="1" connect="1" arrows="1" fold="1" page="1" pageScale="1" pageWidth="827" pageHeight="1169" math="0" shadow="0">
      <root>
        <mxCell id="0" />
        <mxCell id="1" parent="0" />
        <mxCell id="k2AqosmM0PRck4vVFGAH-1" value="" style="rounded=0;whiteSpace=wrap;html=1;" vertex="1" parent="1">
          <mxGeometry x="1250" y="10" width="1030" height="830" as="geometry" />
        </mxCell>
        <mxCell id="k2AqosmM0PRck4vVFGAH-2" value="&lt;font style=&quot;font-size: 22px;&quot;&gt;Fetch Display Activities&lt;/font&gt;" style="text;html=1;align=center;verticalAlign=middle;whiteSpace=wrap;rounded=0;" vertex="1" parent="1">
          <mxGeometry x="1270" y="90" width="230" height="30" as="geometry" />
        </mxCell>
        <mxCell id="k2AqosmM0PRck4vVFGAH-3" style="edgeStyle=orthogonalEdgeStyle;rounded=0;orthogonalLoop=1;jettySize=auto;html=1;entryX=0;entryY=0.5;entryDx=0;entryDy=0;" edge="1" parent="1" source="k2AqosmM0PRck4vVFGAH-4" target="k2AqosmM0PRck4vVFGAH-16">
          <mxGeometry relative="1" as="geometry" />
        </mxCell>
        <mxCell id="k2AqosmM0PRck4vVFGAH-4" value="connection.&lt;div&gt;getSignatureFromAddress&lt;/div&gt;" style="rounded=0;whiteSpace=wrap;html=1;" vertex="1" parent="1">
          <mxGeometry x="1530" y="210" width="170" height="60" as="geometry" />
        </mxCell>
        <mxCell id="k2AqosmM0PRck4vVFGAH-5" value="" style="edgeStyle=orthogonalEdgeStyle;rounded=0;orthogonalLoop=1;jettySize=auto;html=1;" edge="1" parent="1" source="k2AqosmM0PRck4vVFGAH-6" target="k2AqosmM0PRck4vVFGAH-8">
          <mxGeometry relative="1" as="geometry" />
        </mxCell>
        <mxCell id="k2AqosmM0PRck4vVFGAH-6" value="&lt;div style=&quot;background-color: rgb(31, 31, 31); line-height: 18px;&quot;&gt;&lt;font face=&quot;Menlo, Monaco, Courier New, monospace&quot; color=&quot;#dcdcaa&quot;&gt;&lt;span style=&quot;white-space: pre;&quot;&gt;patchNewTx&lt;/span&gt;&lt;/font&gt;&lt;br&gt;&lt;/div&gt;" style="rounded=0;whiteSpace=wrap;html=1;" vertex="1" parent="1">
          <mxGeometry x="1300" y="555" width="120" height="60" as="geometry" />
        </mxCell>
        <mxCell id="k2AqosmM0PRck4vVFGAH-7" value="" style="edgeStyle=orthogonalEdgeStyle;rounded=0;orthogonalLoop=1;jettySize=auto;html=1;" edge="1" parent="1" source="k2AqosmM0PRck4vVFGAH-8" target="k2AqosmM0PRck4vVFGAH-10">
          <mxGeometry relative="1" as="geometry" />
        </mxCell>
        <mxCell id="k2AqosmM0PRck4vVFGAH-8" value="get the incoming tx instruction - decompile tx message" style="rounded=0;whiteSpace=wrap;html=1;" vertex="1" parent="1">
          <mxGeometry x="1500" y="555" width="210" height="60" as="geometry" />
        </mxCell>
        <mxCell id="k2AqosmM0PRck4vVFGAH-9" value="" style="edgeStyle=orthogonalEdgeStyle;rounded=0;orthogonalLoop=1;jettySize=auto;html=1;" edge="1" parent="1" source="k2AqosmM0PRck4vVFGAH-10" target="k2AqosmM0PRck4vVFGAH-11">
          <mxGeometry relative="1" as="geometry" />
        </mxCell>
        <mxCell id="k2AqosmM0PRck4vVFGAH-10" value="format activity data from instruction got" style="rounded=0;whiteSpace=wrap;html=1;" vertex="1" parent="1">
          <mxGeometry x="1760" y="555" width="170" height="60" as="geometry" />
        </mxCell>
        <mxCell id="k2AqosmM0PRck4vVFGAH-11" value="save in solana db" style="rounded=0;whiteSpace=wrap;html=1;" vertex="1" parent="1">
          <mxGeometry x="1980" y="555" width="170" height="60" as="geometry" />
        </mxCell>
        <mxCell id="k2AqosmM0PRck4vVFGAH-12" value="packages/solana-controllers/src/utils/helpers.ts" style="text;html=1;align=center;verticalAlign=middle;whiteSpace=wrap;rounded=0;" vertex="1" parent="1">
          <mxGeometry x="1520" y="620" width="150" height="30" as="geometry" />
        </mxCell>
        <mxCell id="k2AqosmM0PRck4vVFGAH-13" style="edgeStyle=orthogonalEdgeStyle;rounded=0;orthogonalLoop=1;jettySize=auto;html=1;exitX=1;exitY=0.5;exitDx=0;exitDy=0;" edge="1" parent="1" source="k2AqosmM0PRck4vVFGAH-14" target="k2AqosmM0PRck4vVFGAH-4">
          <mxGeometry relative="1" as="geometry" />
        </mxCell>
        <mxCell id="k2AqosmM0PRck4vVFGAH-14" value="activity&amp;nbsp;" style="rounded=0;whiteSpace=wrap;html=1;" vertex="1" parent="1">
          <mxGeometry x="1300" y="210" width="170" height="60" as="geometry" />
        </mxCell>
        <mxCell id="k2AqosmM0PRck4vVFGAH-15" style="edgeStyle=orthogonalEdgeStyle;rounded=0;orthogonalLoop=1;jettySize=auto;html=1;entryX=0;entryY=0.5;entryDx=0;entryDy=0;" edge="1" parent="1" source="k2AqosmM0PRck4vVFGAH-16" target="k2AqosmM0PRck4vVFGAH-18">
          <mxGeometry relative="1" as="geometry" />
        </mxCell>
        <mxCell id="k2AqosmM0PRck4vVFGAH-16" value="filter out backend transaction which are in processing state" style="rounded=0;whiteSpace=wrap;html=1;" vertex="1" parent="1">
          <mxGeometry x="1750" y="210" width="170" height="60" as="geometry" />
        </mxCell>
        <mxCell id="k2AqosmM0PRck4vVFGAH-17" style="edgeStyle=orthogonalEdgeStyle;rounded=0;orthogonalLoop=1;jettySize=auto;html=1;" edge="1" parent="1" source="k2AqosmM0PRck4vVFGAH-18" target="k2AqosmM0PRck4vVFGAH-20">
          <mxGeometry relative="1" as="geometry" />
        </mxCell>
        <mxCell id="k2AqosmM0PRck4vVFGAH-18" value="for other transactions from explorer convert to existing format by decompiling inst." style="rounded=0;whiteSpace=wrap;html=1;" vertex="1" parent="1">
          <mxGeometry x="1970" y="210" width="170" height="60" as="geometry" />
        </mxCell>
        <mxCell id="k2AqosmM0PRck4vVFGAH-19" style="edgeStyle=orthogonalEdgeStyle;rounded=0;orthogonalLoop=1;jettySize=auto;html=1;entryX=1;entryY=0.5;entryDx=0;entryDy=0;" edge="1" parent="1" source="k2AqosmM0PRck4vVFGAH-20" target="k2AqosmM0PRck4vVFGAH-22">
          <mxGeometry relative="1" as="geometry" />
        </mxCell>
        <mxCell id="k2AqosmM0PRck4vVFGAH-20" value="getParsedTx - i/p signatureinfos&lt;br&gt;then format activity" style="rounded=0;whiteSpace=wrap;html=1;" vertex="1" parent="1">
          <mxGeometry x="1970" y="330" width="170" height="60" as="geometry" />
        </mxCell>
        <mxCell id="k2AqosmM0PRck4vVFGAH-21" style="edgeStyle=orthogonalEdgeStyle;rounded=0;orthogonalLoop=1;jettySize=auto;html=1;" edge="1" parent="1" source="k2AqosmM0PRck4vVFGAH-22" target="k2AqosmM0PRck4vVFGAH-23">
          <mxGeometry relative="1" as="geometry" />
        </mxCell>
        <mxCell id="k2AqosmM0PRck4vVFGAH-22" value="combine backend and blockchain activities" style="rounded=0;whiteSpace=wrap;html=1;" vertex="1" parent="1">
          <mxGeometry x="1750" y="330" width="170" height="60" as="geometry" />
        </mxCell>
        <mxCell id="k2AqosmM0PRck4vVFGAH-23" value="update state&amp;nbsp;" style="rounded=0;whiteSpace=wrap;html=1;" vertex="1" parent="1">
          <mxGeometry x="1530" y="330" width="170" height="60" as="geometry" />
        </mxCell>
        <mxCell id="k2AqosmM0PRck4vVFGAH-24" value="formatTransactionToActivity" style="text;html=1;align=center;verticalAlign=middle;whiteSpace=wrap;rounded=0;" vertex="1" parent="1">
          <mxGeometry x="1976" y="400" width="158" height="30" as="geometry" />
        </mxCell>
      </root>
    </mxGraphModel>
  </diagram>
</mxfile>
